<svg xmlns="http://www.w3.org/2000/svg" viewBox="0 0 800 800">
  <defs>
    <linearGradient id="bg" x1="0%" y1="0%" x2="0%" y2="100%">
      <stop offset="0%" stop-color="#f8fafc"/>
      <stop offset="100%" stop-color="#e2e8f0"/>
    </linearGradient>
    <pattern id="dots" x="0" y="0" width="20" height="20" patternUnits="userSpaceOnUse">
      <circle cx="10" cy="10" r="1.5" fill="#94a3b8" opacity="0.05"/>
    </pattern>
  </defs>
  <rect width="800" height="800" fill="url(#bg)"/>
  <rect width="800" height="800" fill="url(#dots)"/>
  <!-- T-shirt icon rotated -->
  <g transform="translate(400,340) rotate(8)" fill="none" stroke="#3b82f6" stroke-width="8" stroke-linecap="round" stroke-linejoin="round">
    <path d="M-80,-120 L-125,-95 L-95,-30 L-60,-50 L-60,120 L60,120 L60,-50 L95,-30 L125,-95 L80,-120 L50,-100 C30,-130 -30,-130 -50,-100 Z" fill="#3b82f6" opacity="0.12"/>
    <path d="M-80,-120 L-125,-95 L-95,-30 L-60,-50 L-60,120 L60,120 L60,-50 L95,-30 L125,-95 L80,-120 L50,-100 C30,-130 -30,-130 -50,-100 Z"/>
    <path d="M-50,-100 C-30,-75 30,-75 50,-100" stroke-dasharray="6 4" opacity="0.5"/>
  </g>
  <text x="400" y="530" text-anchor="middle" font-family="system-ui, -apple-system, sans-serif" font-weight="700" font-size="28" fill="#334155">Playera Dry-Fit</text>
  <text x="400" y="740" text-anchor="middle" font-family="system-ui, -apple-system, sans-serif" font-weight="400" font-size="16" fill="#cbd5e1">placeholder</text>
</svg>